<svg xmlns="http://www.w3.org/2000/svg" xmlns:xlink="http://www.w3.org/1999/xlink" width="210" height="273" version="1.1" viewBox="0 0 210 273"><title>Icon</title><desc>Created with Sketch.</desc><g id="Page-1" fill="none" fill-rule="evenodd" stroke="none" stroke-width="1"><g id="Logo-Grayscale"><g id="Icon" transform="translate(5.000000, 6.000000)"><g id="Outer" stroke="#6A6586" stroke-width="12" transform="translate(0.000000, 0.244821)"><polygon id="Stroke-1" points="0 57.701 0 172.038 99.499 229.643 198.563 172.038 198.563 57.701 99.499 .096"/><polyline id="Stroke-3" points="0 57.701 99.499 110.069 198.563 57.701"/><polygon id="Stroke-5" stroke-linejoin="round" points="0 172.038 198.563 172.038 99.499 .096"/><line id="Stroke-7" x1="99.485" x2="99.501" y1="172.038" y2="229.643"/></g><g id="Circle" transform="translate(60.000000, 187.244821)"><circle id="Oval" cx="39.758" cy="40.071" r="19" fill="#CCC9DB"/><circle id="Oval" cx="39.758" cy="40.071" r="39.244" fill="#FFF" opacity=".168"/></g><g id="Diamond" stroke="#CCC9DB" stroke-width="12" transform="translate(50.622527, 0.340524)"><polygon id="Stroke-9" stroke-linejoin="round" points="48.877 0 .095 84.298 48.877 171.942 97.445 84.298"/><polyline id="Stroke-12" points="0 83.789 48.877 109.973 97.317 83.789"/><polyline id="Stroke-12" points="0 60.789 48.877 86.973 97.317 60.789" transform="translate(48.658723, 73.881044) rotate(-180.000000) translate(-48.658723, -73.881044)"/><line id="Stroke-13" x1="48.877" x2="48.877" y1="0" y2="171.942"/></g></g></g></g></svg>